<svg xmlns="http://www.w3.org/2000/svg" width="20" height="20" fill="none" viewBox="0 0 20 20"><path fill="#212121" d="M18.5 0H1.5C0.666667 0 0 0.669456 0 1.42259V18.5774C0 19.3305 0.666667 20 1.5 20H18.5C19.3333 20 20 19.3305 20 18.5774V1.42259C20 0.669456 19.3333 0 18.5 0ZM5.91667 17.0711H3V7.53138H5.91667V17.0711ZM4.5 6.19247C3.58333 6.19247 2.75 5.43933 2.75 4.43515C2.75 3.43096 3.5 2.67782 4.5 2.67782C5.41667 2.67782 6.25 3.43096 6.25 4.43515C6.25 5.43933 5.41667 6.19247 4.5 6.19247ZM17.0833 16.9874H14.1667V12.3013C14.1667 11.2134 14.1667 9.70711 12.5833 9.70711C11 9.70711 10.8333 10.9623 10.8333 12.1339V16.9038H7.91667V7.53138H10.6667V8.78661H10.75C11.1667 8.03347 12.1667 7.19665 13.5833 7.19665C16.5833 7.19665 17.1667 9.20502 17.1667 11.7992V16.9874H17.0833Z"/></svg>